<svg xmlns="http://www.w3.org/2000/svg" width="595.686" height="500.22" viewBox="0 0 595.686 500.22">
  <g id="undraw_shopping_app_flsj" transform="translate(0 10.29)">
    <path id="Path_301" data-name="Path 301" d="M156,194.774h2.643v-73.03a42.085,42.085,0,0,1,41.9-42.268H353.921a42.085,42.085,0,0,1,41.9,42.268V522.392a42.085,42.085,0,0,1-41.9,42.268H200.543a42.085,42.085,0,0,1-41.9-42.268V246.757H156Z" transform="translate(199.864 -79.476)" fill="#e6e6e6"/>
    <path id="Path_302" data-name="Path 302" d="M204.931,96.108h20.021a15.12,15.12,0,0,0,1.426,14.034,14.83,14.83,0,0,0,12.337,6.634h87.868a14.829,14.829,0,0,0,12.337-6.633,15.121,15.121,0,0,0,1.427-14.035h18.7a31.435,31.435,0,0,1,31.291,31.578V527.912a31.435,31.435,0,0,1-31.291,31.578l-35.534,3-118.582-3a31.435,31.435,0,0,1-31.291-31.578V127.686a31.435,31.435,0,0,1,31.291-31.578Z" transform="translate(193.728 -106.397)" fill="#fff"/>
    <path id="Path_303" data-name="Path 303" d="M254.992,219.111h9.2a1.22,1.22,0,0,1,1.22,1.22v4.039a1.22,1.22,0,0,1-1.22,1.22h-1.525v6.052h-6.152V225.59h-1.525a1.22,1.22,0,0,1-1.22-1.22v-4.039A1.22,1.22,0,0,1,254.992,219.111Z" transform="translate(266.189 -126.7)" fill="#e6e6e6"/>
    <path id="Path_304" data-name="Path 304" d="M241.839,259.321a47.308,47.308,0,0,0,8.23-28.048,1,1,0,0,1,.779-1v-1.745h9.718v1.721h.134a1,1,0,0,1,1,1c0,.024,0,.048,0,.073a43.174,43.174,0,0,0,7.756,28.713,2.748,2.748,0,0,1,.5,1.665l-1.063,32.871a2.846,2.846,0,0,1-2.821,2.746H244.081a2.847,2.847,0,0,1-2.823-2.795l-.409-31.915A5.76,5.76,0,0,1,241.839,259.321Z" transform="translate(270.126 -129.768)" fill="#e6e6e6"/>
    <path id="Path_305" data-name="Path 305" d="M248.2,292.166h19.133a1.964,1.964,0,0,1,1.941,2.263l-2.891,18.793h-16.6l-3.512-18.73a1.964,1.964,0,0,1,1.931-2.326Z" transform="translate(267.242 -151.431)" fill="#fff"/>
    <path id="Path_306" data-name="Path 306" d="M411.275,369.345h9.2a1.22,1.22,0,0,1,1.22,1.22V374.6a1.22,1.22,0,0,1-1.22,1.22h-1.525v6.052H412.8v-6.052h-1.525a1.22,1.22,0,0,1-1.22-1.22v-4.039A1.22,1.22,0,0,1,411.275,369.345Z" transform="translate(3.483 -177.606)" fill="#e6e6e6"/>
    <path id="Path_307" data-name="Path 307" d="M398.122,409.556a47.308,47.308,0,0,0,8.23-28.048,1,1,0,0,1,.779-1v-1.745h9.719v1.721h.134a1,1,0,0,1,1,1c0,.024,0,.048,0,.073a43.174,43.174,0,0,0,7.756,28.713,2.748,2.748,0,0,1,.5,1.665l-1.063,32.871a2.845,2.845,0,0,1-2.821,2.746H400.365a2.847,2.847,0,0,1-2.823-2.795l-.409-31.915A5.759,5.759,0,0,1,398.122,409.556Z" transform="translate(7.503 -180.561)" fill="#e6e6e6"/>
    <path id="Path_308" data-name="Path 308" d="M404.485,442.4h19.133a1.964,1.964,0,0,1,1.942,2.263l-2.891,18.793h-16.6l-3.512-18.73a1.964,1.964,0,0,1,1.931-2.326Z" transform="translate(4.576 -202.322)" fill="#fff"/>
    <path id="Path_309" data-name="Path 309" d="M242.971,581.733h4.365a.579.579,0,0,1,.579.579v1.916a.579.579,0,0,1-.579.579h-.723v2.871h-2.918v-2.871h-.723a.579.579,0,0,1-.579-.579v-1.916A.579.579,0,0,1,242.971,581.733Z" transform="translate(291.146 -249.612)" fill="#e6e6e6"/>
    <path id="Path_310" data-name="Path 310" d="M236.732,600.806a22.44,22.44,0,0,0,3.9-13.3.473.473,0,0,1,.369-.472V586.2h4.61v.816h.064a.473.473,0,0,1,.472.474c0,.011,0,.023,0,.034a20.479,20.479,0,0,0,3.679,13.62,1.3,1.3,0,0,1,.236.79l-.5,15.592a1.35,1.35,0,0,1-1.338,1.3H237.8a1.35,1.35,0,0,1-1.339-1.326l-.194-15.139A2.731,2.731,0,0,1,236.732,600.806Z" transform="translate(293.013 -250.957)" fill="#e6e6e6"/>
    <rect id="Rectangle_77" data-name="Rectangle 77" width="9.949" height="4.974" transform="translate(531.246 355.58)" fill="#fff"/>
    <path id="Path_311" data-name="Path 311" d="M273.971,581.733h4.365a.579.579,0,0,1,.579.579v1.916a.579.579,0,0,1-.579.579h-.723v2.871h-2.918v-2.871h-.723a.579.579,0,0,1-.579-.579v-1.916A.579.579,0,0,1,273.971,581.733Z" transform="translate(239.828 -249.612)" fill="#e6e6e6"/>
    <path id="Path_312" data-name="Path 312" d="M267.732,600.806a22.441,22.441,0,0,0,3.9-13.3.473.473,0,0,1,.369-.472V586.2h4.61v.816h.063a.473.473,0,0,1,.472.474c0,.011,0,.023,0,.034a20.479,20.479,0,0,0,3.679,13.62,1.3,1.3,0,0,1,.236.79l-.5,15.592a1.35,1.35,0,0,1-1.338,1.3H268.8a1.35,1.35,0,0,1-1.339-1.326l-.194-15.139A2.731,2.731,0,0,1,267.732,600.806Z" transform="translate(241.695 -250.957)" fill="#e6e6e6"/>
    <rect id="Rectangle_78" data-name="Rectangle 78" width="9.949" height="4.974" transform="translate(510.927 355.58)" fill="#fff"/>
    <path id="Path_313" data-name="Path 313" d="M304.971,581.733h4.365a.579.579,0,0,1,.579.579v1.916a.579.579,0,0,1-.579.579h-.723v2.871h-2.918v-2.871h-.723a.579.579,0,0,1-.579-.579v-1.916A.579.579,0,0,1,304.971,581.733Z" transform="translate(188.509 -249.612)" fill="#e6e6e6"/>
    <path id="Path_314" data-name="Path 314" d="M298.732,600.806a22.44,22.44,0,0,0,3.9-13.3.473.473,0,0,1,.369-.472V586.2h4.61v.816h.063a.473.473,0,0,1,.472.474c0,.011,0,.023,0,.034a20.479,20.479,0,0,0,3.679,13.62,1.3,1.3,0,0,1,.236.79l-.5,15.592a1.35,1.35,0,0,1-1.338,1.3H299.8a1.35,1.35,0,0,1-1.339-1.326l-.194-15.139A2.732,2.732,0,0,1,298.732,600.806Z" transform="translate(190.377 -250.957)" fill="#e6e6e6"/>
    <rect id="Rectangle_79" data-name="Rectangle 79" width="9.949" height="4.974" transform="translate(490.609 355.58)" fill="#fff"/>
    <path id="Path_315" data-name="Path 315" d="M386.887,523.613h9.2a1.22,1.22,0,0,1,1.22,1.22v4.039a1.22,1.22,0,0,1-1.22,1.22h-1.525v6.052h-6.152v-6.052h-1.525a1.22,1.22,0,0,1-1.22-1.22v-4.039A1.22,1.22,0,0,1,386.887,523.613Z" transform="translate(44.241 -229.879)" fill="#e6e6e6"/>
    <path id="Path_316" data-name="Path 316" d="M373.734,563.824a47.308,47.308,0,0,0,8.23-28.048,1,1,0,0,1,.779-1v-1.745h9.718v1.721h.134a1,1,0,0,1,1,1q0,.036,0,.073a43.175,43.175,0,0,0,7.756,28.713,2.747,2.747,0,0,1,.5,1.665l-1.063,32.871a2.846,2.846,0,0,1-2.821,2.746H375.976a2.847,2.847,0,0,1-2.823-2.795l-.41-31.915A5.76,5.76,0,0,1,373.734,563.824Z" transform="translate(48.272 -232.717)" fill="#e6e6e6"/>
    <path id="Path_317" data-name="Path 317" d="M380.1,596.668H399.23a1.964,1.964,0,0,1,1.942,2.263l-2.891,18.793h-16.6l-3.512-18.73a1.965,1.965,0,0,1,1.931-2.326Z" transform="translate(45.341 -254.578)" fill="#fff"/>
    <path id="Path_318" data-name="Path 318" d="M325.544,301.722H380.4c-3.835-20.734-2.953-45.77,0-72.695H325.544C328.418,255.952,329.277,280.988,325.544,301.722Z" transform="translate(101.285 -129.926)" fill="#e6e6e6"/>
    <ellipse id="Ellipse_96" data-name="Ellipse 96" cx="13.217" cy="13.217" rx="13.217" ry="13.217" transform="translate(440.497 120.333)" fill="#fff"/>
    <path id="Path_319" data-name="Path 319" d="M248.914,448.932h54.852c-3.835-20.734-2.953-45.77,0-72.695H248.914C251.788,403.162,252.647,428.2,248.914,448.932Z" transform="translate(231.021 -179.687)" fill="#e6e6e6"/>
    <ellipse id="Ellipse_97" data-name="Ellipse 97" cx="13.217" cy="13.217" rx="13.217" ry="13.217" transform="translate(493.813 217.686)" fill="#fff"/>
    <path id="Path_320" data-name="Path 320" d="M372.933,308.78h54.852c-3.835-20.734-2.953-45.77,0-72.695H372.933C375.807,263.01,376.666,288.046,372.933,308.78Z" transform="translate(22.031 -132.312)" fill="#e6e6e6"/>
    <ellipse id="Ellipse_98" data-name="Ellipse 98" cx="13.217" cy="13.217" rx="13.217" ry="13.217" transform="translate(408.673 125)" fill="#fff"/>
    <path id="Path_321" data-name="Path 321" d="M372.933,303.739h54.852c-3.835-20.734-2.953-45.77,0-72.695H372.933C375.807,257.969,376.666,283.005,372.933,303.739Z" transform="translate(22.031 -130.608)" fill="#e6e6e6"/>
    <ellipse id="Ellipse_99" data-name="Ellipse 99" cx="13.217" cy="13.217" rx="13.217" ry="13.217" transform="translate(408.673 121.666)" fill="#fff"/>
    <path id="Path_322" data-name="Path 322" d="M372.933,308.78h54.852c-3.835-20.734-2.953-45.77,0-72.695H372.933C375.807,263.01,376.666,288.046,372.933,308.78Z" transform="translate(22.031 -132.312)" fill="#e6e6e6"/>
    <ellipse id="Ellipse_100" data-name="Ellipse 100" cx="13.217" cy="13.217" rx="13.217" ry="13.217" transform="translate(408.673 125)" fill="#fff"/>
    <rect id="Rectangle_80" data-name="Rectangle 80" width="179.756" height="19.826" transform="translate(386.091 168.321)" fill="#e6e6e6"/>
    <rect id="Rectangle_81" data-name="Rectangle 81" width="179.756" height="19.826" transform="translate(386.091 267.662)" fill="#e6e6e6"/>
    <rect id="Rectangle_82" data-name="Rectangle 82" width="179.756" height="19.826" transform="translate(386.091 367.004)" fill="#e6e6e6"/>
    <path id="Path_323" data-name="Path 323" d="M926.508,709.223l44.782-31.674c-15.1-14.713-28.841-35.663-41.978-59.35L884.53,649.873C902.425,670.195,917.584,690.14,926.508,709.223Z" transform="translate(-866.769 -260.88)" fill="#f60"/>
    <ellipse id="Ellipse_101" data-name="Ellipse 101" cx="13.217" cy="13.217" rx="13.217" ry="13.217" transform="translate(46.51 387.508)" fill="#fff"/>
    <path id="Path_324" data-name="Path 324" d="M615.419,536.554h4.916a.652.652,0,0,1,.652.652v2.158a.652.652,0,0,1-.652.652h-.815v3.233h-3.286v-3.233h-.815a.652.652,0,0,1-.652-.652v-2.158a.652.652,0,0,1,.652-.652Z" transform="translate(-333.127 -234.296)" fill="#e6e6e6"/>
    <path id="Path_325" data-name="Path 325" d="M608.392,558.035a25.273,25.273,0,0,0,4.4-14.984.533.533,0,0,1,.416-.532v-.932H618.4v.919h.071a.533.533,0,0,1,.532.533c0,.013,0,.026,0,.039a23.064,23.064,0,0,0,4.143,15.339,1.468,1.468,0,0,1,.266.89l-.568,17.56a1.52,1.52,0,0,1-1.507,1.467H609.59a1.52,1.52,0,0,1-1.508-1.493l-.219-17.049A3.078,3.078,0,0,1,608.392,558.035Z" transform="translate(-331.032 -235.825)" fill="#f60"/>
    <path id="Path_326" data-name="Path 326" d="M617.409,537.627a1.406,1.406,0,1,0,2.812,0" transform="translate(-334.091 -234.688)" opacity="0.2"/>
    <rect id="Rectangle_83" data-name="Rectangle 83" width="9.913" height="6.609" transform="translate(279.65 325.587)" fill="#fff"/>
    <path id="Path_327" data-name="Path 327" d="M845.922,641.218h9.2a1.22,1.22,0,0,1,1.22,1.22v4.039a1.22,1.22,0,0,1-1.22,1.22H853.6v6.052h-6.152V647.7h-1.525a1.22,1.22,0,0,1-1.22-1.22v-4.039a1.22,1.22,0,0,1,1.22-1.22Z" transform="translate(-722.868 -269.728)" fill="#e6e6e6"/>
    <path id="Path_328" data-name="Path 328" d="M832.769,681.429A47.309,47.309,0,0,0,841,653.38a1,1,0,0,1,.779-1V650.64H851.5v1.721h.134a1,1,0,0,1,1,1c0,.024,0,.048,0,.073a43.173,43.173,0,0,0,7.756,28.713,2.748,2.748,0,0,1,.5,1.665l-1.063,32.871a2.845,2.845,0,0,1-2.821,2.746H835.011a2.846,2.846,0,0,1-2.823-2.795l-.41-31.915A5.76,5.76,0,0,1,832.769,681.429Z" transform="translate(-719.063 -272.058)" fill="#f60"/>
    <path id="Path_329" data-name="Path 329" d="M849.645,643.226a2.632,2.632,0,1,0,5.264,0" transform="translate(-724.629 -270.475)" opacity="0.2"/>
    <path id="Path_330" data-name="Path 330" d="M839.132,714.273h19.133a1.964,1.964,0,0,1,1.942,2.263l-2.891,18.793h-16.6L837.2,716.6a1.964,1.964,0,0,1,1.931-2.326Z" transform="translate(-721.914 -293.984)" fill="#fff"/>
    <path id="Path_331" data-name="Path 331" d="M736.858,718.78H791.71c-3.835-20.734-2.953-45.77,0-72.695H736.858C739.732,673.009,740.591,698.046,736.858,718.78Z" transform="translate(-586.604 -270.488)" fill="#f60"/>
    <ellipse id="Ellipse_102" data-name="Ellipse 102" cx="13.217" cy="13.217" rx="13.217" ry="13.217" transform="translate(164.28 396.744)" fill="#fff"/>
    <path id="Path_332" data-name="Path 332" d="M342.393,313.754l-12.314-1.12-7.836-19.03,13.993-7.836Z" transform="translate(36.948 -96.684)" fill="#ffb8b8"/>
    <path id="Path_333" data-name="Path 333" d="M608.492,482.049h0a6.943,6.943,0,0,1,6.031-9.515l19.119-1.14,2.815,9.361-19.682,5.405A6.943,6.943,0,0,1,608.492,482.049Z" transform="translate(-344.334 -212.173)" fill="#ffb8b8"/>
    <path id="Path_334" data-name="Path 334" d="M475.657,459.711l.21-17.565,42.467-6.776,32.716-37.522a10.709,10.709,0,0,1,13.957-1.908h0a10.709,10.709,0,0,1,1.866,16.335l-26.991,33.216Z" transform="translate(-189.527 -185.787)" fill="#575a89"/>
    <path id="Path_335" data-name="Path 335" d="M558.878,696.187H547.684L519.917,570.649,491.152,609.43l-16.792,83.958H463.726l2.239-90.114L503.466,507h36.942c10.1,18.27,18.014,37.1,8.956,56.531Z" transform="translate(-170.546 -222.565)" fill="#2f2e41"/>
    <path id="Path_336" data-name="Path 336" d="M617,800.474a2.922,2.922,0,0,1-2.278,3.748l-27.393,4.861a4.507,4.507,0,0,1-5.113-3.089h0a4.479,4.479,0,0,1,2.191-5.326,41.881,41.881,0,0,0,15.107-13.134c3.011,2.8,6.376,2.54,9.949.474l3.79.474Z" transform="translate(-307.633 -319.227)" fill="#2f2e41"/>
    <path id="Path_337" data-name="Path 337" d="M490.61,800.474a2.922,2.922,0,0,1-2.278,3.748l-27.393,4.861a4.507,4.507,0,0,1-5.113-3.089h0a4.479,4.479,0,0,1,2.191-5.326,41.884,41.884,0,0,0,15.107-13.134c3.011,2.8,6.376,2.54,9.949.474l3.79.474Z" transform="translate(-96.341 -319.227)" fill="#2f2e41"/>
    <ellipse id="Ellipse_103" data-name="Ellipse 103" cx="15.672" cy="15.672" rx="15.672" ry="15.672" transform="translate(343.017 172.436)" fill="#ffb8b8"/>
    <path id="Path_338" data-name="Path 338" d="M509.818,470.594l-40.859-1.119,12-37.766c-7.457-11.955.048-23.9,10.669-35.837l8.4-5.6,13.433-1.119h0a32.977,32.977,0,0,1,8.881,22.973A147.989,147.989,0,0,1,509.818,470.594Z" transform="translate(-137.079 -184.009)" fill="#575a89"/>
    <path id="Path_339" data-name="Path 339" d="M594.877,541.841h0a6.943,6.943,0,0,1,1.8-11.12l17.128-8.57,6.271,7.5-15.969,12.712A6.944,6.944,0,0,1,594.877,541.841Z" transform="translate(-317.763 -229.333)" fill="#ffb8b8"/>
    <path id="Path_340" data-name="Path 340" d="M506.142,496.468l-6.717-16.232L535.8,457.3l15.318-47.367a10.709,10.709,0,0,1,12.081-7.245h0a10.709,10.709,0,0,1,8.141,14.284l-11.747,41.155Z" transform="translate(-207.461 -188.454)" fill="#575a89"/>
    <path id="Path_341" data-name="Path 341" d="M512.069,344.753c0,6.1-3.96,15.542-8.956,19.59-3.361,2.724-7.8,2.609-9.515-1.119-1.757-3.825-7.812-12.815-18.471-18.471-14.208-7.539,5.039-20.437,18.471-18.471C503.691,327.76,512.069,334.552,512.069,344.753Z" transform="translate(-127.482 -162.855)" fill="#2f2e41"/>
    <ellipse id="Ellipse_104" data-name="Ellipse 104" cx="11.194" cy="11.194" rx="11.194" ry="11.194" transform="translate(364.099 150.946)" fill="#2f2e41"/>
    <path id="Path_342" data-name="Path 342" d="M490.17,312.818a11.187,11.187,0,0,1,10.355-11.152c-.278-.021-.556-.042-.84-.042a11.194,11.194,0,1,0,0,22.389c.283,0,.561-.022.84-.042A11.187,11.187,0,0,1,490.17,312.818Z" transform="translate(-127.988 -154.631)" fill="#2f2e41"/>
    <ellipse id="Ellipse_105" data-name="Ellipse 105" cx="2.519" cy="3.358" rx="2.519" ry="3.358" transform="translate(355.817 187.031)" fill="#ffb8b8"/>
    <path id="Path_343" data-name="Path 343" d="M467.529,589.023H641.791l36.9-174.444h31.493v-7.827H672.348L635.446,581.2H467.529Z" transform="translate(-434.595 -135.931)" fill="#3f3d56"/>
    <ellipse id="Ellipse_106" data-name="Ellipse 106" cx="16.773" cy="16.773" rx="16.773" ry="16.773" transform="translate(168.992 451.415)" fill="#3f3d56"/>
    <ellipse id="Ellipse_107" data-name="Ellipse 107" cx="16.773" cy="16.773" rx="16.773" ry="16.773" transform="translate(39.644 451.415)" fill="#3f3d56"/>
    <path id="Path_344" data-name="Path 344" d="M720.7,680.979H890.243l29.915-147.834H692.622a8.039,8.039,0,0,0-7.941,9.285l28.074,131.758A8,8,0,0,0,720.7,680.979ZM888.4,678.743H720.7a5.771,5.771,0,0,1-5.73-4.9L686.891,542.083a5.8,5.8,0,0,1,5.731-6.7h224.82Z" transform="translate(-684.584 -231.573)" fill="#3f3d56"/>
    <path id="Path_345" data-name="Path 345" d="M596.829,601.522,616.42,455.461l-2.206-.364L594.623,601.158Z" transform="translate(-419.974 -152.589)" fill="#3f3d56"/>
    <path id="Path_346" data-name="Path 346" d="M806.362,600.4l2.208-.358L789.551,455.1l-2.208.358Z" transform="translate(-742.597 -152.591)" fill="#3f3d56"/>
    <rect id="Rectangle_84" data-name="Rectangle 84" width="2.236" height="146.06" transform="translate(118.391 302.69)" fill="#3f3d56"/>
    <rect id="Rectangle_85" data-name="Rectangle 85" width="2.237" height="216.488" transform="matrix(-0.002, -1, 1, -0.002, 7.667, 343.342)" fill="#3f3d56"/>
    <rect id="Rectangle_86" data-name="Rectangle 86" width="190.193" height="2.237" transform="matrix(-1, -0.007, 0.007, -1, 213.109, 414.451)" fill="#3f3d56"/>
    <ellipse id="Ellipse_108" data-name="Ellipse 108" cx="12.301" cy="6.709" rx="12.301" ry="6.709" transform="translate(266.305 265.073)" fill="#3f3d56"/>
  </g>
</svg>
